<?xml version="1.0" encoding="utf-8"?>
<!-- Generator: Adobe Illustrator 24.3.0, SVG Export Plug-In . SVG Version: 6.00 Build 0)  -->
<svg version="1.1" id="Layer_1" xmlns="http://www.w3.org/2000/svg" xmlns:xlink="http://www.w3.org/1999/xlink" x="0px" y="0px"
	 viewBox="0 0 484.5 218.7" style="enable-background:new 0 0 484.5 218.7;" xml:space="preserve">
<style type="text/css">
	.st0{fill:#0499AA;}
	.st1{fill-rule:evenodd;clip-rule:evenodd;fill:#231F20;}
	.st2{fill:#FFFFFF;}
</style>
<g id="Layer_2_1_">
	<g id="Layer_1-2">
		<path d="M91,178.4c1.6,2.4,2.3,0.7,2.9-0.5l11.1-24.3c12-26.4,23.9-52.7,35.9-79.1c4.5-10,9.1-19.9,13.7-29.8
			c0.9-1.8,0.2-3-0.7-4.5c-7-10.5-7.1-22.2,0.1-31.3c5.7-7.3,13.6-9.8,22.5-8.6c8.7,1.2,15,6.2,18.5,14.2
			c6.1,14.2-0.4,29.4-14.9,34.9c-1.6,0.6-2.9,1.9-3.6,3.5c-20.5,44.7-41,89.4-61,134.3c-4.2,9.5-8.7,19-12.9,28.6
			c-1,2.2-2.3,2.9-4.7,2.9c-7.1-0.2-14.1-0.1-21.2,0c-1.6,0.2-3-0.8-3.5-2.3c-14.3-32-28.4-63.8-42.6-95.6c-9.8-22-19.7-44-29.6-66
			c-0.4-0.9-1.2-1.8-0.9-3c0.9-0.8,2-0.5,3.1-0.5c9.9,0,19.8,0.1,29.6-0.1c2.5,0,3.6,0.9,4.5,3c10,23.3,20.1,46.6,30.2,69.8
			C75.3,142.1,83.1,160.2,91,178.4z"/>
		<path class="st0" d="M185.9,165.4V55.9c0-3.9,0.6-4.6,4.5-4.6c15.4,0,30.8-0.6,46.2,0.1c29,1.3,51,14.9,65,40.5
			c4,7.1,6.5,15,7.3,23.1c0,1.5-0.3,3.1-0.9,4.5c-10.4,25.3-20.7,50.7-31.1,76c-1.3,3.1-2.6,6.3-3.7,9.5c-0.7,2.1-2.1,3.8-4.1,4.7
			c-9.1,5.2-19.1,7.4-29.4,8.2c-17,1.4-34.1,0.3-51.1,0.6c-0.9,0.1-1.8-0.1-2.6-0.6C185.6,200.7,186,183.2,185.9,165.4 M214.5,148.3
			c0,13.1,0,26.1-0.1,39.2c0,2.6,0.7,3.7,3.5,3.5c5.3-0.4,10.6-0.3,15.9-0.6c14.2-0.9,26.3-6.3,35.4-17.4
			c13.2-16.2,16.5-35,11.5-54.9c-4.8-19.3-17.1-32.2-36.5-37.6c-8.3-2.3-16.9-1.3-25.4-1.4c-4.1,0-4.3,0.2-4.3,4.5L214.5,148.3z"/>
		<path d="M293,218.5h-15.7c-0.9-1.1-0.3-1.8-0.1-2.5c10.1-24.8,20.3-49.6,30.5-74.4c8.8-21.5,17.7-43,26.5-64.4
			c3.2-7.8,6.6-15.5,9.8-23.3c0.5-1.7,2.1-2.8,3.9-2.6c6.1,0.2,12.2-0.3,18.3,0.4c1.7-0.1,3.3,1.1,3.7,2.8
			c5.9,14.3,12.1,28.5,17.6,43c6.2,16.3,13.3,32.2,19.6,48.4c7.5,19.6,15.8,38.9,23.8,58.3c1.6,3.8,3.3,7.4,5,11.1
			c0.4,0.9,1,1.7,0.6,2.9c-0.4,0.2-0.9,0.3-1.3,0.3h-26.7c-1.9,0-2.4-1.1-3-2.5l-12.6-32.1c-1.9-4.9-1.9-4.9-7.1-4.9h-58.7
			c-4.7,0-4.7,0-6.5,4.5c-4.3,10.9-8.7,21.7-12.9,32.7c-0.7,1.8-1.7,2.6-3.6,2.5C300.5,218.4,296.9,218.5,293,218.5 M376.5,140.3
			c-6.3-16.4-12.5-32.7-18.8-49c-1.3,0.3-2.3,1.4-2.5,2.7c-2.4,6.3-4.8,12.7-7.2,19c-4.5,11.7-8.9,23.3-13.4,34.9
			c-1.2,3.1-0.8,3.9,2.1,3.9h40.4c2.6,0,3.3-1.1,2.4-3.5S377.6,143.2,376.5,140.3L376.5,140.3z"/>
		<path d="M382.9,62.7c-1.6-3.5-3.1-7.1-4.3-10.8c0.9-0.6,2-0.8,3.1-0.6c15.2,0,30.4-0.2,45.6,0.1c10.3,0.2,20.4,2,29.7,6.8
			c15.2,7.7,23.8,20.3,26.7,36.9c1.9,11.1,0.5,22.6-4.1,32.9c-5.1,11.9-14.1,19.7-25.8,24.6c-3.7,1.6-3.8,1.8-2,5.5
			c8.3,17.1,18.7,33,27.6,49.8c1.3,2.4,2.6,4.8,3.8,7.2c0.5,0.9,1.2,1.8,0.8,3c-0.8,0.8-1.8,0.5-2.8,0.5h-24.1
			c-1.7,0-2.9-0.3-3.9-1.9c-11.3-19.9-23-39.7-32.8-60.5c-3.4-7.3-6.2-14.8-9.3-22.2c-0.5-0.8-0.7-1.7-0.6-2.6
			c1.1-0.9,2.4-0.4,3.6-0.5c7-0.2,14.1,0.5,21.2-0.6c11.2-1.8,19.2-10.2,20.9-21.5c2.2-15.3-9.5-28.3-22.6-29.4
			c-8.1-0.7-16.2-0.3-24.4-0.4c-5.5-0.1-11-0.2-16.6,0c-2.7,0.1-4-1-4.9-3.4C386.3,71.4,384.6,67.2,382.9,62.7z"/>
		<path d="M171.1,155v59.2c0,4.1-0.1,4.2-4.3,4.3c-6.2,0-12.4,0-18.6,0.1c-2,0-3-0.5-3-2.8c0.1-22,0-44,0.1-65.9
			c0.1-4.6,1.2-9.2,3.2-13.4c7.1-15,14-30.2,21-45.3c0.2-0.8,0.8-1.3,1.6-1.4V155z"/>
		<path class="st0" d="M186.2,165.1V55.6c0-3.9,0.6-4.6,4.5-4.6c15.4,0,30.8-0.6,46.2,0.1c29,1.3,51,14.9,65,40.5
			c4,7.1,6.5,15,7.3,23.1c0,1.5-0.3,3.1-0.9,4.5c-10.4,25.3-20.7,50.7-31.1,76c-1.3,3.1-2.6,6.3-3.7,9.5c-0.7,2.1-2.1,3.8-4.1,4.7
			c-9.1,5.2-19.1,7.4-29.4,8.2c-17,1.4-34.1,0.3-51.1,0.6c-0.9,0.1-1.8-0.1-2.6-0.6C185.9,200.4,186.3,182.9,186.2,165.1 M214.8,148
			c0,13.1,0,26.1-0.1,39.2c0,2.6,0.7,3.7,3.5,3.5c5.3-0.4,10.6-0.3,15.9-0.6c14.2-0.9,26.3-6.3,35.4-17.4
			c13.2-16.2,16.5-35,11.5-54.9c-4.8-19.3-17.1-32.2-36.5-37.6c-8.3-2.3-16.9-1.3-25.4-1.4c-4.1,0-4.3,0.2-4.3,4.5L214.8,148z"/>
		<path class="st1" d="M437.2,105.3c0.2,0,0.3,0,0.5,0.1l2.2,1.1c0.4,0.3,0.5,0.8,0.3,1.2c-0.2,0.3-0.5,0.5-0.8,0.5
			c-0.2,0-0.3,0-0.5-0.1l-2.2-1.1c-0.3-0.3-0.5-0.8-0.3-1.3C436.6,105.5,436.9,105.3,437.2,105.3z"/>
		<path class="st1" d="M415.3,105.3c0.3,0,0.7,0.2,0.8,0.5c0.3,0.4,0.2,1-0.3,1.3c0,0,0,0,0,0c-2.2,1.3-2.2,1.5-2.6,1.5
			c-0.5-0.1-1-0.5-0.9-1.1c0-0.3,0.2-0.5,0.4-0.7l2.2-1.4C415,105.3,415.1,105.3,415.3,105.3z"/>
		<path class="st1" d="M426.1,89.4c5.7,0,10.4,4.7,10.4,10.4c0,2.9-1.2,5.7-3.4,7.7c-1,0.9-1.5,2.2-1.5,3.5v5.8c0,1-0.6,2-1.6,2.3
			c-0.2,2-1.9,3.6-3.9,3.6c-2.1,0-3.8-1.6-3.9-3.6c-0.9-0.4-1.5-1.3-1.5-2.3v-6c0-0.3,0-0.7-0.1-1c-0.1-0.5,0.2-1,0.7-1.1
			c0,0,0,0,0,0h0.1c0.4,0,0.8,0.3,0.9,0.7c0.1,0.3,0.1,0.6,0.1,0.9h1.2v-9.4h-0.9c-1.4,0-2.6-1.1-2.6-2.5c0-1.4,1.1-2.6,2.5-2.6
			c0,0,0,0,0,0h0.1c1.4,0,2.6,1,2.6,2.4c0,0.1,0,0.1,0,0.2v0.7h1.4v-0.7c0-1.4,1.1-2.6,2.6-2.6c0,0,0,0,0,0h0.2
			c1.4,0,2.5,1.1,2.5,2.6c0,1.4-1.1,2.5-2.5,2.5h-0.9v9.4h1.1c0.1-1.6,0.9-3.1,2.1-4.2c1.8-1.6,2.8-3.9,2.8-6.3
			c0-4.7-3.8-8.6-8.5-8.6c0,0-0.1,0-0.1,0h-0.3c-4.6,0.1-8.2,3.8-8.3,8.4v0.1c0,2.3,0.9,4.6,2.6,6.2c0.4,0.4,0.4,0.9,0,1.3
			c-0.2,0.2-0.4,0.3-0.7,0.3c-0.3,0-0.5-0.1-0.7-0.3c-4.1-4-4.1-10.6-0.1-14.6c1.9-1.9,4.4-3,7.1-3.1
			C425.8,89.4,425.9,89.4,426.1,89.4z M424.2,119.3c0.2,0.9,1,1.6,2,1.6c1,0,1.8-0.7,2.1-1.6H424.2z M422.6,115.7v1.1h-0.1
			c0,0.4,0.2,0.7,0.6,0.8c0,0,0.1,0,0.1,0h5.9c0.4,0,0.7-0.3,0.7-0.7c0,0,0-0.1,0-0.1v-1.1H422.6z M422.5,112.1v1.8h7.3v-1.8H422.5z
			 M425.5,100.9v9.4h1.4v-9.4H425.5z M422.7,97.7c-0.4,0-0.7,0.2-0.8,0.6c0,0,0,0.1,0,0.1c0,0.4,0.3,0.7,0.7,0.7c0,0,0,0,0,0h0.9
			v-0.7C423.6,97.9,423.2,97.7,422.7,97.7z M429.4,97.7c-0.4,0-0.7,0.2-0.8,0.6c0,0,0,0.1,0,0.1v0.7h0.9c0.4,0,0.7-0.3,0.7-0.7
			c0,0,0,0,0,0C430.3,97.9,429.8,97.7,429.4,97.7L429.4,97.7z"/>
		<path class="st1" d="M426.2,83.7c0.5,0,0.9,0.4,1,0.9v2.6c0,0.6-0.4,1-1,1s-1-0.4-1-1v-2.6C425.1,84.2,425.6,83.7,426.2,83.7z"/>
		<path class="st1" d="M433.7,85.5c0.2,0,0.3,0,0.5,0.1c0.4,0.2,0.6,0.6,0.4,1c0,0.1-0.1,0.1-0.1,0.2l-1.3,2.3
			c-0.1,0.3-0.5,0.5-0.8,0.5c-0.1,0-0.3,0-0.4-0.1c-0.4-0.2-0.6-0.7-0.4-1.2c0,0,0.1-0.1,0.1-0.1l1.2-2.3
			C433.1,85.7,433.4,85.5,433.7,85.5z"/>
		<path class="st1" d="M439.5,91.2c0.3,0,0.6,0.2,0.7,0.5c0.2,0.4,0.1,1-0.3,1.3c-2.1,1.3-2.1,1.5-2.5,1.5c-0.4,0-0.7-0.3-0.8-0.6
			c-0.2-0.4-0.1-1,0.3-1.3l2.2-1.3C439.2,91.2,439.3,91.2,439.5,91.2z"/>
		<path class="st1" d="M441.6,98.7c0.5,0,0.9,0.4,0.9,0.9c0,0,0,0,0,0.1c0,0.5-0.4,0.9-0.9,1h-2.7c-0.5-0.1-0.9-0.5-0.9-1
			c0-0.5,0.3-1,0.8-1c0,0,0,0,0.1,0H441.6z"/>
		<path class="st1" d="M413.7,99c0.5,0,0.9,0.4,1,0.9c0,0.5-0.4,0.9-0.9,0.9c0,0,0,0-0.1,0H411c-0.5,0-0.9-0.4-0.9-0.9
			s0.4-0.9,0.9-0.9H413.7z"/>
		<path class="st1" d="M413.1,91.5c0.2,0,0.3,0,0.4,0.1l2.3,1.2c0.4,0.2,0.6,0.6,0.4,1c0,0.1-0.1,0.1-0.1,0.2
			c-0.1,0.3-0.5,0.4-0.8,0.4s-0.3,0-0.4-0.1l-2.3-1.2c-0.4-0.2-0.6-0.8-0.3-1.2c0,0,0,0,0,0C412.5,91.6,412.8,91.5,413.1,91.5z"/>
		<path class="st1" d="M418.6,85.8c0.3,0,0.6,0.2,0.8,0.4l1.3,2.2c0.3,0.4,0.1,0.9-0.2,1.2c0,0,0,0-0.1,0c-0.1,0.1-0.3,0.1-0.5,0.1
			c-0.3,0-0.6-0.1-0.8-0.4l-1.2-2.2c-0.3-0.4-0.1-0.9,0.2-1.2c0,0,0,0,0.1,0C418.3,85.8,418.4,85.8,418.6,85.8z"/>
		<circle class="st2" cx="172.6" cy="23.1" r="15.4"/>
	</g>
</g>
</svg>
