<svg xmlns="http://www.w3.org/2000/svg" viewBox="0 0 483.97 284.6"><defs><style>.cls-1{fill:#939598;}</style></defs><g id="Layer_2" data-name="Layer 2"><g id="Layer_1-2" data-name="Layer 1"><g id="Layer_2-2" data-name="Layer 2"><g id="Layer_1-2-2" data-name="Layer 1-2"><path class="cls-1" d="M9.82,196.06a98.08,98.08,0,0,1,2.94-13.56,44.75,44.75,0,0,1,16.65-23.19c7-5,14.4-9.47,21.81-13.88,5-3,7.54-8.16,10.49-12.9.68-1.08-.08-2.06-.54-3-2.74-5.56-5.65-11-8.25-16.66A45.77,45.77,0,0,1,50,80.9c3.45-12.56,11.61-21,24.13-24.48,14.85-4.17,29.7-3.27,44.25,1.78a23.33,23.33,0,0,1,9.48,6c2.21,2.37,3.75,5,2,8.38-.51,1,0,1.66.5,2.39,3.4,5.42,5,11.51,6.56,17.6a7.16,7.16,0,0,1-.92,6.1,3.42,3.42,0,0,0,.06,4,116,116,0,0,0,7.51,11c3.47,4.68,2.29,8.24-3.37,9.73-2.13.57-3.28,1.37-3.5,3.77-.52,5.78-3,11.13-3.86,16.89-.84,5.55-4.5,8.3-10.19,8.37a84.69,84.69,0,0,1-9-.63,5.61,5.61,0,0,0-5.75,3c-4.38,7.16-4.48,7.23,2.75,11.29,7.49,4.21,12.4,10.67,16.42,18,4.91,8.93,8.07,18.67,12.75,27.7a199.51,199.51,0,0,0,16.91,27.76A6.91,6.91,0,0,0,158.9,242c1.12,0,1.65-.91,2.32-1.55q10.69-10.26,21.37-20.54c1.33-1.28,2.56-2.63,4.41-3.23,1.53-.51,1.65-2,2-3.31,2.72-10.44,6-20.66,12-29.75,3.95-6,7.78-12.06,13-17.09,2.38-2.3,5.23-2.8,7.36-1.42s2.85,4.32,1.58,7.56c-1.6,4.08-4,7.74-6.14,11.53-1,1.84-.7,2.81,1.32,3.39,3.73,1.06,5.33,4,7.4,7.1,2.34,3.49,3.49,7,4.89,10.86,2.41,6.61,1.63,10.81-4.8,14.3a5.81,5.81,0,0,0-2,2.09c-4.12,6.07-8.83,11.54-15.43,15.07a2.42,2.42,0,0,0-1.49,1.68c-.77,5.24-4.45,8.69-7.72,12.36-3.48,3.9-7.06,7.72-10.59,11.58-.64.69-1.49,1.28-1.35,2.47,1,1.12,2.33.7,3.52.7q78.63,0,157.25.05a31.61,31.61,0,0,1,3.77.16,2.07,2.07,0,0,1,2,2.06,2.16,2.16,0,0,1-1.94,2.39h-.06a23.73,23.73,0,0,1-3.77.15H184.74a9,9,0,0,0-7.19,2.79,43.08,43.08,0,0,1-9.44,7.22c-8.87,5.18-17.81,5.28-26.81.39a50.74,50.74,0,0,1-10.23-7,10.43,10.43,0,0,0-8.69-3,12.09,12.09,0,0,1-4.9-.25,2.45,2.45,0,0,1-2-2.83h0c.17-1.44,1.26-1.86,2.5-1.92s2.71.34,4.48-.86c-10.65-12.49-19.64-26.15-29.25-40-1.39,2.39-.3,3.24.27,4.14,4.59,7.19,9.26,14.31,14.5,21.05a6.16,6.16,0,0,1,1.58,4.5c-.76,9.16-2.36,18.21-3.62,27.31a2.63,2.63,0,0,1-2.57,2.35,22.39,22.39,0,0,1-2.32.06H3.14c-2.33,0-3.37-1.27-3.1-3.55,1.06-8.93,2.18-17.84,3.2-26.77,1.06-9.31,2-18.64,3.06-28,1.13-10,2.33-20,3.52-30.19m122-102.12a50,50,0,0,0-5.32-15.27,8.69,8.69,0,0,0-3-3.5c-1-.61-2-1.29-3.19-.41a2.85,2.85,0,0,0-1.09,3.3c.56,2.49,1.78,4.7,2.6,7.07s1.39,4.83-.19,7a33.18,33.18,0,0,0-5.92,11.51c-.67,2.63-3.44,3.34-5.89,3.45-2.22.11-2.57-1.91-3.13-3.59a15.83,15.83,0,0,0-1.64-3.39,6.37,6.37,0,0,0-6.32-3.29,6.19,6.19,0,0,0-5.54,4,16,16,0,0,0,1.27,15.53,9.17,9.17,0,0,0,6.15,4.49c1.62.27,2.94.82,2.71,2.68s-1.64,2.45-3.41,2.37a8.84,8.84,0,0,1-4.1-1.33c-1.57-.92-3-2-4.51-2.93a8,8,0,0,0-2.11,2.61c-4.94,6.74-10.63,11.92-19.93,9.86-.87-.19-2-.41-2.35,1,1.28,1.45,1.24,1.57,3.18,2.29,9.54,3.58,17.44,9.49,24.48,16.76,5.18,5.36,5.36,5.27,9-1.39,2.24-4.1,5.45-6.14,10.17-5.69a50.45,50.45,0,0,0,8.68.57c2.67-.2,4.94-1.22,5.32-4,.79-5.85,3.38-11.3,3.88-17.13.37-4.18,1.21-7.09,6-7.64,2-.23,2.17-1.56,1-3.14-1.66-2.26-3.18-4.63-4.9-6.86-3.44-4.46-5.69-9-1.88-14.89m75.51,88.73c-6.73,9.22-10.67,19.65-13.44,30.63-.74,3-1,5.22,2.33,6.66a12.54,12.54,0,0,1,2.86,2.43c3.13,2.79,5.22,6.37,7.11,10a12.55,12.55,0,0,0,4.93-2.95c4.29-3.47,7.29-8,10.21-12.57.72-1.13,1.33-2.33,3-2.25,2.87.12,2.83-2.16,2.9-4,.08-2.17-1.51-2.34-3.23-2.25-1.49.08-3.34.53-3.79-1.62s1.24-2.56,2.75-3.07c.89-.3,2-.36,1.86-1.75a2.45,2.45,0,0,0-2.35-2.19,9.33,9.33,0,0,0-4,.3c-1.44.43-2.83.31-3.33-1.34s.53-2.71,2.07-3.26c.8-.28,1.75-.27,2.19-1.2-1.46-2.71-2.74-3.07-6.82-1.89-1.37.39-2.82,1.31-4-.15s-.15-2.91.6-4.25c2.8-5,5.64-9.93,8.4-14.93.56-1,1.37-2,.71-3.88-4.63,3.84-7.49,8.66-11,13.51Z"/><path class="cls-1" d="M420.39,164.78c-8.8,3.72-17.64,5.13-26.85,2.92-2.1-.5-4.17-1.14-5.07-3.42-.49-1.24-1.38-1.08-2.39-.84a52.52,52.52,0,0,0-17,7.18c-5.67,3.65-6.18,9.48-7.18,15.15-2.92,16.47.22,32.55,3.26,48.63,1.06,5.61,1.11,5.6-2,8.3-3.11-4.18-2.69-9.35-4.43-14.34-2.42,2.79-4.68,5.46-7,8.06a62.59,62.59,0,0,1-9.81,9.44c-10.34,7.43-22.16,2.86-27.33-6-6-10.21-10.66-21.08-15.51-31.85A89.8,89.8,0,0,1,294,195.36c-.35-1.27-1.26-1.74-2.37-2.29-9-4.46-14.45-12-18-21.09a4.66,4.66,0,0,1,.76-4.66c3.08-4.22,5.93-8.66,10.25-11.78,1.58-1.13,1.31-2,.17-3.25-3.29-3.55-6.5-7.18-9.73-10.79-1.63-1.83-2.46-3.85-.67-6,1.94-2.31,4-1,6,.06a9.65,9.65,0,0,1,2,1.66c7.2,7,14.42,14.08,21.57,21.17,5.71,5.66,9.25,12.17,7.55,20.57a2.66,2.66,0,0,0,.42,1.92q9.82,17,19.66,33.94a14.27,14.27,0,0,0,1.24,1.55c1.41-.57,1.85-1.83,2.5-2.86,3.84-6,7.62-12.14,11.45-18.2a48,48,0,0,0,4.62-9.3c5.14-14.17,16.08-22.06,29.84-26.68a43.53,43.53,0,0,1,5.65-1.27c1.34-.26,2.49-.64,2.43-2.31s-1.26-1.75-2.45-1.91a46.23,46.23,0,0,1-10.89-2.9c-11.6-4.57-18-13.39-20.22-25.35a67.72,67.72,0,0,1,4.43-40.08c6.58-15.2,18.53-23.7,34.78-26.18,9.88-1.5,19.71-1.43,29,2.85,15.06,6.9,24.06,18.41,26.25,35,.23,1.81.33,3.65.54,5.47.13,1.09-.49,2.59,1,3.06a4.63,4.63,0,0,0,4.67-.73,4.18,4.18,0,0,0,1.56-3c.07-2.71.06-5.42.1-8.13,0-1.22-.86-1.86-1.53-2.68a5.24,5.24,0,0,1,.2-7.41l.15-.14a5.6,5.6,0,0,1,7.64,0,5,5,0,0,1,.59,7c-.14.15-.28.3-.43.44A5.67,5.67,0,0,0,463,95.81c.09,1.74.05,3.49,0,5.23-.18,6.24-3.39,9.47-9.58,9.66-1.21,0-2.75-.34-3,1.41-.2,1.15-.8,2.59.58,3.44s2.42.54,3.69-.44c3-2.34,6.61-1.73,8.55,1.24a5.54,5.54,0,0,1-8.48,7c-.48-.47-.82-1.09-1.29-1.57-2.08-2.11-4.68-1.58-5.68,1.16a45.23,45.23,0,0,1-21.25,24.82c-2.12,1.19-3.38,5.15-2.25,7.22.73,1.32,2.2,1.12,3.37,1.26a91.62,91.62,0,0,1,21.63,5.38,54.56,54.56,0,0,1,16.27,9.4c7.29,6.18,9.76,14.43,10.94,23.57,2.12,16.48,5.1,32.84,7.26,49.32,1.8,13.71-8,27.12-24.55,24.75-10.61-1.51-21.39-1.83-32.09-2.65-5.79-.45-11.58-.76-17.36-1.26-2.65-.23-5.16.84-7.8.5a33.51,33.51,0,0,1-10-2.81c-5.19-2.4-10-1.38-14.08,2.65-1.4,1.41-2.9,3.54-5.09,1.85s-.73-3.9.43-5.65a22.15,22.15,0,0,1,7.5-7.16c1.21-.68,2.62-1.21,3.41-2.7-1.3-.87-2.17,0-3,.42A31.29,31.29,0,0,0,370,262.29c-1.18,1.7-2.42,4.24-4.94,2.72s-1-3.81-.06-5.68a31.08,31.08,0,0,1,13-13.68c.79-.42,1.91-.65,1.83-2-1.08-.67-1.87.13-2.68.52A32.78,32.78,0,0,0,363,257.58c-.54.92-1.09,1.83-1.68,2.72-.81,1.24-1.86,2.11-3.38,1.32s-1.53-2.23-1-3.54A40.29,40.29,0,0,1,363.12,248c4.82-5.73,10.36-10.57,17.8-12.45,7.77-2,15.08.37,21.83,3.87a22.68,22.68,0,0,0,12.24,2.4c11-.58,22-1.17,33.06-1.59,2.67-.1,3.35-.91,2.74-3.5-1.75-7.43-3.3-14.91-4.94-22.37a7.05,7.05,0,0,0-1.38-3.14c-11.25-13.44-7-32.79,8.89-40.52a6.74,6.74,0,0,0,.82-.58c-.46-1.26-1.7-1.48-2.66-2-7.56-3.7-15.64-5.57-23.93-6.68-1.81-.24-3.41-.05-4.64,1.62a9.43,9.43,0,0,1-2.56,1.72m15.69-87.57C426.85,67.08,415.4,63,401.73,63.6c-18.7.85-32.49,10.52-38.68,28.13-3.6,10.25-4.06,20.78-2.47,31.48q2.88,19.26,21.57,24.57a55.62,55.62,0,0,0,36.68-2.09c10.94-4.35,19-11.76,23.53-22.78.41-1,1.22-2,.37-3.31-2.09.75-2.63,2.83-3.94,4.15-5.19,5.22-12.34,4.51-16.24-1.74a17,17,0,0,1,1.13-18.84c5.12-6.84,13.41-6.56,18,.62.62,1,1.08,2.26,2.57,1.83s1.13-1.87,1.12-2.94a38.91,38.91,0,0,0-9.31-25.47m27.24,104a20.61,20.61,0,0,0-3.4-.65c-8.79-.37-15,8-12.9,17.47,1.9,8.68,4,17.31,6,26,1,4.4,2,8.8,3,13.41,8.29-3.59,15.4-1.46,22.26,3.59a27.48,27.48,0,0,0,0-3.63c-2.41-15.54-4.92-31.07-7.27-46.63-.69-4.59-3.1-7.57-7.65-9.53m4.75,79.62c2.78-3.29,3.43-7,1.4-10.77a9.85,9.85,0,0,0-9.74-5.59q-6.53.31-13.05.55-16.11.63-32.22,1.22a1.74,1.74,0,0,0-1.89.91c.65,3.2,1.65,6.63.4,10.06-.89,2.43.07,3,2.35,3.21,14,1.07,28,2.27,42,3.37,3.77.3,7.64.71,10.8-3M299.5,193.3c-1.54,1.22-.33,2.51.09,3.6,4.8,12.27,10.51,24.13,16.48,35.87a13.77,13.77,0,0,0,3.37,4.32,8.39,8.39,0,0,0,11.13-.17c3.65-3.28,4.12-7.56,1.19-12.65-4.1-7.14-8.34-14.19-12.48-21.3-3.16-5.42-6.25-10.87-9.69-16.85-2.48,3.88-5.87,5.81-10.09,7.18M338,218.37c-.71,1-.92,1.75.17,2.72a18.63,18.63,0,0,1,5.27,9.18c.54,1.91,1,3.82,1.65,6.11a117.06,117.06,0,0,0,12.38-14.58,1.52,1.52,0,0,0,.4-1.05c-.87-3.24-.38-6.78-2-9.83a43.52,43.52,0,0,1-3.5-9.5c-.31-1.15.12-2.55-1.43-3.72-4.28,6.82-8.51,13.57-12.93,20.67m-49.17-52.5c-.52-.42-.74-1.37-2.18-1l7.22,8.56.64-.5c-1.81-2.27-3.61-4.54-5.68-7.08M285.92,175l-3.72-4c1.05,2.89,3.14,4.82,5.33,7.21C287.52,176.65,286.67,176.09,285.92,175Z"/><path class="cls-1" d="M336.7,0h40.09c6.29,0,9.52,3.19,9.53,9.42,0,13.65-.05,27.31.06,41,0,2.39-.82,3.33-3,4.07-7.61,2.55-7.33,3-7.31-5.21,0-11.82-.07-23.63.06-35.45,0-2.8-.86-3.62-3.65-3.61-25.08.1-50.17.07-75.26.07H120.57c-4,0-4,0-4,4.07v30.8c0,3.52-.29,3.75-3.61,3.2-6.68-1.11-6.68-1.11-6.68-7.92V9.93c0-7,2.89-9.89,9.84-9.89Z"/><path class="cls-1" d="M192.72,151.81c0,4.6,0,4.61,4.24,4.64,2,0,4.08-.14,6.1,0,2.87.25,3.9-.78,3.88-3.77-.05-8.13-.32-16.26-.51-24.39-.18-7.17,0-14.34-.19-21.51-.06-2.79,1.08-3.87,3.76-3.84,4.74.06,9.49,0,14.24,0,4.32.08,5.09.85,5.1,5.18v43.59c0,4.66,0,4.66,4.6,4.68,2.33,0,4.66-.17,7,0,2.79.22,3.48-1.06,3.45-3.59-.14-12.3-.18-24.61-.24-36.91,0-4.29.08-4.4,4.38-4.41h14.24c2.37,0,3.31,1,3.27,3.31-.23,12.78.38,25.58-.54,38.34-.17,2.36.51,3.46,3,3.26a22.58,22.58,0,0,1,4.35.11c1.31.15,2.6.75,2.56,2.28a3,3,0,0,1-2.6,3,12.83,12.83,0,0,1-2.32.06L228,162a6.74,6.74,0,0,1-4.13-1c-3.38-2.34-7-2.11-10.4-.19a8.08,8.08,0,0,1-4.08,1.2c-14.53,0-29.06,0-43.59,0a8.1,8.1,0,0,1-2.3-.17,2.52,2.52,0,0,1-1.88-2.33,2.58,2.58,0,0,1,1.47-2.62,4.94,4.94,0,0,1,2.54-.43c5.82,0,5.23.27,5.19-5.47-.06-7.17-.28-14.33-.38-21.5-.05-4.07.38-4.47,4.45-4.48h14.82c2.43,0,3.25,1.09,3.22,3.37C192.81,136,192.78,143.79,192.72,151.81Z"/><path class="cls-1" d="M220.26,232a19.52,19.52,0,0,0,2.86-3.55c2-4.1,5.2-5,9.47-4.7,5.1.35,5.12.09,5.12-5.06V199.23c0-2.32.13-4.64-1.09-6.78a3.31,3.31,0,0,1-.28-2.54,4.2,4.2,0,0,0-1.46-4.88c.67-2.24,2.38-2.73,4.13-2.75,7.84-.07,15.68,0,23.52,0a7.36,7.36,0,0,1,5.3,2.63c1.2,1.24,2.49,2.42,3.65-.25.6-1.37,2-.84,2.69-.1a77.62,77.62,0,0,1,6.69,7.24c1.4,1.81-.32,2.41-1.75,2.44-2.41.06-4.83-.09-7.25-.24-2.19-.13-3.19.73-3.17,3q.09,11.91,0,23.82c0,2.25.9,3.08,3.13,3.05,5.91-.09,11.82,0,17.72-.06,2.11,0,3.49.64,4.25,2.68s1.87,4.26,2.69,6.43c1.2,3.16.22,4.58-3.2,4.6H222.41c-1.64,0-3.87.86-4.72-1.16S219.2,233.49,220.26,232Z"/><path class="cls-1" d="M292.88,141.64c-3.38-3.49-6.59-6.85-9.86-10.15a5.84,5.84,0,0,1-1.79-4.39V81.19c0-3.33.54-3.82,3.91-3.91,4.74-.13,9.48-.3,14.22-.4,3.67-.07,4.8,1,4.8,4.53q0,33-.06,66a8.8,8.8,0,0,1-.06,1.45c-.12.84,0,1.87-1,2.24s-1.6-.49-2.19-1.09C298.24,147.25,295.63,144.52,292.88,141.64Z"/><path class="cls-1" d="M235.63,86.75c-3.88-1.84-7.57-3.54-11.23-5.32-1.56-.76-3-1.1-4.65-.09a4.12,4.12,0,0,1-3.36.6c-3.12-1-5.23.4-7.4,2.41-6.74,6.26-13.6,12.39-20.45,18.54a3.69,3.69,0,0,0-1.27,3.55c.43,4.4-2.86,8-7.38,8.41a7.87,7.87,0,0,1-8.86-6.73c0-.15,0-.29-.05-.44a7.3,7.3,0,0,1,6.47-8,7.5,7.5,0,0,1,.82,0c3.86,0,6.25-1.82,8.77-4.18,6.3-5.87,12.71-11.63,19.12-17.4A5,5,0,0,0,208,73.75c-.22-4.69,2.46-7.62,7.16-8.22a7.72,7.72,0,0,1,8.9,6.07,5,5,0,0,0,3.14,3.78q8.6,3.91,17.08,8.05c1.6.79,3,1.11,4.64.1a3,3,0,0,1,1.63-.53c4.27.31,6.55-2.49,8.93-5.36C265.16,70.78,271,64,276.72,57.22c1.44-1.7,3-3.21.46-5.54-1.34-1.23-.76-3.16,1.09-4.06,3.84-1.84,7.69-3.68,11.6-5.36,2.2-.94,3.34-.14,3.39,2.27.08,3.78,0,7.56,0,11.33,0,1.36.14,2.82-1.34,3.58s-2.79,0-4-.84c-.54-.39-1.12-.73-1.93-1.25-3.78,4.33-7.53,8.59-11.25,12.89-4.43,5.13-8.82,10.3-13.27,15.41a4.14,4.14,0,0,0-1.15,3.66,8,8,0,0,1-6.16,9.16c-4.62,1-8.91-1.44-9.92-5.81a3.75,3.75,0,0,0-2.39-2.93C239.81,88.83,237.83,87.81,235.63,86.75Z"/><path class="cls-1" d="M311,52c2.9-10.64,10.31-16.71,19.9-16.51,10.05.2,18.77,8.39,19.34,18.15A19.8,19.8,0,1,1,311,52Z"/><path class="cls-1" d="M161.14,194.28c-6.58-.11-12.87.18-19.16-.26a3.93,3.93,0,0,1-3.81-2.49c-.83-1.86-1.87-3.61-2.76-5.44-.45-.93-1-1.93.09-2.77.69-.1.95.32,1.19.74,2,3.4,2.47,3.42,4.61.07a3,3,0,0,1,2.34-1.51,47.66,47.66,0,0,1,4.91-.46q21.49-.06,43,0c3.93,0,4.55,1,2.63,4.48-5.2,9.33-2.55,7.45-12.7,7.67C174.79,194.42,168.11,194.29,161.14,194.28Z"/><path class="cls-1" d="M320.32,185.08c-.64-2.17.44-3,2.15-3,7.35,0,14.7-.06,22,.09,2.57,0,3.38,1.59,2,3.67-1.87,2.77-2.7,6.94-5.93,7.93-4.37,1.35-9.19.63-13.81.21-1.19-.11-1.77-1.07-2.33-2C323.09,189.75,321.74,187.52,320.32,185.08Z"/><path class="cls-1" d="M227.6,183.73c.94,2,2.47,3.64,1.81,6.28-2.37-1.35-3.2-3.47-4.16-5.46a1.17,1.17,0,0,1,.52-1.49C226.49,182.58,227,183,227.6,183.73Z"/><path class="cls-1" d="M397.63,114.82c-3.66-.41-5.43-2.24-5.86-5.82-.54-4.53,1-8,3.86-9.18a4.51,4.51,0,0,1,5.05,1.17C404.47,104.67,402.72,113.16,397.63,114.82Z"/><path class="cls-1" d="M365.79,109.76a9.59,9.59,0,0,1,.49-8.34c1-1.93,2.57-3.23,4.84-3.1a5.14,5.14,0,0,1,4.53,3.56,9.62,9.62,0,0,1,.19,7.08c-.83,2.35-2.22,4.16-4.82,4.46S366.9,112.16,365.79,109.76Z"/></g></g></g></g></svg>